<svg xmlns="http://www.w3.org/2000/svg" version="1.1" xmlns:xlink="http://www.w3.org/1999/xlink" xmlns:svgjs="http://svgjs.dev/svgjs" width="1440" height="560" preserveAspectRatio="none" viewBox="0 0 1440 560"><g mask="url(&quot;#SvgjsMask1008&quot;)" fill="none"><path d="M-42.34 351.19L-42.34 351.19" stroke="rgba(94, 119, 19, 1)" stroke-width="1.5"></path><path d="M-42.34 351.19L105.87 350.87" stroke="rgba(94, 119, 19, 1)" stroke-width="1.5"></path><path d="M-42.34 351.19L-60.89 504.34" stroke="rgba(94, 119, 19, 1)" stroke-width="1.5"></path><path d="M-60.89 504.34L-60.89 504.34" stroke="rgba(94, 119, 19, 1)" stroke-width="1.5"></path><path d="M-60.89 504.34L40.23 548.4" stroke="rgba(94, 119, 19, 1)" stroke-width="1.5"></path><path d="M-60.89 504.34L-45.46 637.66" stroke="rgba(94, 119, 19, 1)" stroke-width="1.5"></path><path d="M-60.89 504.34L55.17 677.65" stroke="rgba(94, 119, 19, 1)" stroke-width="1.5"></path><path d="M-45.46 637.66L-45.46 637.66" stroke="rgba(94, 119, 19, 1)" stroke-width="1.5"></path><path d="M-45.46 637.66L55.17 677.65" stroke="rgba(94, 119, 19, 1)" stroke-width="1.5"></path><path d="M-45.46 637.66L40.23 548.4" stroke="rgba(94, 119, 19, 1)" stroke-width="1.5"></path><path d="M-45.46 637.66L231.97 696.35" stroke="rgba(94, 119, 19, 1)" stroke-width="1.5"></path><path d="M105.87 350.87L105.87 350.87" stroke="rgba(94, 119, 19, 1)" stroke-width="1.5"></path><path d="M105.87 350.87L226.77 508.95" stroke="rgba(94, 119, 19, 1)" stroke-width="1.5"></path><path d="M105.87 350.87L40.23 548.4" stroke="rgba(94, 119, 19, 1)" stroke-width="1.5"></path><path d="M105.87 350.87L-60.89 504.34" stroke="rgba(94, 119, 19, 1)" stroke-width="1.5"></path><path d="M105.87 350.87L356.53 495.04" stroke="rgba(94, 119, 19, 1)" stroke-width="1.5"></path><path d="M40.23 548.4L40.23 548.4" stroke="rgba(94, 119, 19, 1)" stroke-width="1.5"></path><path d="M40.23 548.4L55.17 677.65" stroke="rgba(94, 119, 19, 1)" stroke-width="1.5"></path><path d="M40.23 548.4L226.77 508.95" stroke="rgba(94, 119, 19, 1)" stroke-width="1.5"></path><path d="M55.17 677.65L55.17 677.65" stroke="rgba(94, 119, 19, 1)" stroke-width="1.5"></path><path d="M55.17 677.65L231.97 696.35" stroke="rgba(94, 119, 19, 1)" stroke-width="1.5"></path><path d="M55.17 677.65L226.77 508.95" stroke="rgba(94, 119, 19, 1)" stroke-width="1.5"></path><path d="M226.77 508.95L226.77 508.95" stroke="rgba(94, 119, 19, 1)" stroke-width="1.5"></path><path d="M226.77 508.95L356.53 495.04" stroke="rgba(94, 119, 19, 1)" stroke-width="1.5"></path><path d="M226.77 508.95L231.97 696.35" stroke="rgba(94, 119, 19, 1)" stroke-width="1.5"></path><path d="M226.77 508.95L392.02 395.98" stroke="rgba(94, 119, 19, 1)" stroke-width="1.5"></path><path d="M231.97 696.35L231.97 696.35" stroke="rgba(94, 119, 19, 1)" stroke-width="1.5"></path><path d="M231.97 696.35L395.38 699.13" stroke="rgba(94, 119, 19, 1)" stroke-width="1.5"></path><path d="M231.97 696.35L356.53 495.04" stroke="rgba(94, 119, 19, 1)" stroke-width="1.5"></path><path d="M392.02 395.98L392.02 395.98" stroke="rgba(94, 119, 19, 1)" stroke-width="1.5"></path><path d="M392.02 395.98L356.53 495.04" stroke="rgba(94, 119, 19, 1)" stroke-width="1.5"></path><path d="M392.02 395.98L537.94 380.45" stroke="rgba(94, 119, 19, 1)" stroke-width="1.5"></path><path d="M392.02 395.98L516.2 547.22" stroke="rgba(94, 119, 19, 1)" stroke-width="1.5"></path><path d="M356.53 495.04L356.53 495.04" stroke="rgba(94, 119, 19, 1)" stroke-width="1.5"></path><path d="M395.38 699.13L395.38 699.13" stroke="rgba(94, 119, 19, 1)" stroke-width="1.5"></path><path d="M395.38 699.13L514.02 676.3" stroke="rgba(94, 119, 19, 1)" stroke-width="1.5"></path><path d="M395.38 699.13L516.2 547.22" stroke="rgba(94, 119, 19, 1)" stroke-width="1.5"></path><path d="M395.38 699.13L356.53 495.04" stroke="rgba(94, 119, 19, 1)" stroke-width="1.5"></path><path d="M395.38 699.13L226.77 508.95" stroke="rgba(94, 119, 19, 1)" stroke-width="1.5"></path><path d="M395.38 699.13L658.5 699.33" stroke="rgba(94, 119, 19, 1)" stroke-width="1.5"></path><path d="M537.94 380.45L537.94 380.45" stroke="rgba(94, 119, 19, 1)" stroke-width="1.5"></path><path d="M537.94 380.45L639.11 396.12" stroke="rgba(94, 119, 19, 1)" stroke-width="1.5"></path><path d="M537.94 380.45L516.2 547.22" stroke="rgba(94, 119, 19, 1)" stroke-width="1.5"></path><path d="M537.94 380.45L688.16 489.52" stroke="rgba(94, 119, 19, 1)" stroke-width="1.5"></path><path d="M537.94 380.45L356.53 495.04" stroke="rgba(94, 119, 19, 1)" stroke-width="1.5"></path><path d="M516.2 547.22L516.2 547.22" stroke="rgba(94, 119, 19, 1)" stroke-width="1.5"></path><path d="M516.2 547.22L514.02 676.3" stroke="rgba(94, 119, 19, 1)" stroke-width="1.5"></path><path d="M516.2 547.22L356.53 495.04" stroke="rgba(94, 119, 19, 1)" stroke-width="1.5"></path><path d="M514.02 676.3L514.02 676.3" stroke="rgba(94, 119, 19, 1)" stroke-width="1.5"></path><path d="M514.02 676.3L658.5 699.33" stroke="rgba(94, 119, 19, 1)" stroke-width="1.5"></path><path d="M514.02 676.3L356.53 495.04" stroke="rgba(94, 119, 19, 1)" stroke-width="1.5"></path><path d="M514.02 676.3L688.16 489.52" stroke="rgba(94, 119, 19, 1)" stroke-width="1.5"></path><path d="M514.02 676.3L231.97 696.35" stroke="rgba(94, 119, 19, 1)" stroke-width="1.5"></path><path d="M639.11 396.12L639.11 396.12" stroke="rgba(94, 119, 19, 1)" stroke-width="1.5"></path><path d="M639.11 396.12L688.16 489.52" stroke="rgba(94, 119, 19, 1)" stroke-width="1.5"></path><path d="M639.11 396.12L516.2 547.22" stroke="rgba(94, 119, 19, 1)" stroke-width="1.5"></path><path d="M639.11 396.12L854.21 344.43" stroke="rgba(94, 119, 19, 1)" stroke-width="1.5"></path><path d="M639.11 396.12L392.02 395.98" stroke="rgba(94, 119, 19, 1)" stroke-width="1.5"></path><path d="M639.11 396.12L356.53 495.04" stroke="rgba(94, 119, 19, 1)" stroke-width="1.5"></path><path d="M688.16 489.52L688.16 489.52" stroke="rgba(94, 119, 19, 1)" stroke-width="1.5"></path><path d="M688.16 489.52L516.2 547.22" stroke="rgba(94, 119, 19, 1)" stroke-width="1.5"></path><path d="M688.16 489.52L820.23 641.55" stroke="rgba(94, 119, 19, 1)" stroke-width="1.5"></path><path d="M658.5 699.33L658.5 699.33" stroke="rgba(94, 119, 19, 1)" stroke-width="1.5"></path><path d="M854.21 344.43L854.21 344.43" stroke="rgba(94, 119, 19, 1)" stroke-width="1.5"></path><path d="M854.21 344.43L999.18 365.72" stroke="rgba(94, 119, 19, 1)" stroke-width="1.5"></path><path d="M854.21 344.43L1002.53 223.4" stroke="rgba(94, 119, 19, 1)" stroke-width="1.5"></path><path d="M820.23 641.55L820.23 641.55" stroke="rgba(94, 119, 19, 1)" stroke-width="1.5"></path><path d="M820.23 641.55L658.5 699.33" stroke="rgba(94, 119, 19, 1)" stroke-width="1.5"></path><path d="M820.23 641.55L999.27 659.83" stroke="rgba(94, 119, 19, 1)" stroke-width="1.5"></path><path d="M820.23 641.55L998.41 521.07" stroke="rgba(94, 119, 19, 1)" stroke-width="1.5"></path><path d="M944.88 -67.09L944.88 -67.09" stroke="rgba(94, 119, 19, 1)" stroke-width="1.5"></path><path d="M944.88 -67.09L945.51 63.09" stroke="rgba(94, 119, 19, 1)" stroke-width="1.5"></path><path d="M944.88 -67.09L1109.76 -71.44" stroke="rgba(94, 119, 19, 1)" stroke-width="1.5"></path><path d="M945.51 63.09L945.51 63.09" stroke="rgba(94, 119, 19, 1)" stroke-width="1.5"></path><path d="M945.51 63.09L1002.53 223.4" stroke="rgba(94, 119, 19, 1)" stroke-width="1.5"></path><path d="M945.51 63.09L1133.69 104.51" stroke="rgba(94, 119, 19, 1)" stroke-width="1.5"></path><path d="M1002.53 223.4L1002.53 223.4" stroke="rgba(94, 119, 19, 1)" stroke-width="1.5"></path><path d="M1002.53 223.4L999.18 365.72" stroke="rgba(94, 119, 19, 1)" stroke-width="1.5"></path><path d="M1002.53 223.4L1155.73 201.35" stroke="rgba(94, 119, 19, 1)" stroke-width="1.5"></path><path d="M1002.53 223.4L1133.69 104.51" stroke="rgba(94, 119, 19, 1)" stroke-width="1.5"></path><path d="M1002.53 223.4L1095 400.92" stroke="rgba(94, 119, 19, 1)" stroke-width="1.5"></path><path d="M999.18 365.72L999.18 365.72" stroke="rgba(94, 119, 19, 1)" stroke-width="1.5"></path><path d="M999.18 365.72L1095 400.92" stroke="rgba(94, 119, 19, 1)" stroke-width="1.5"></path><path d="M999.18 365.72L998.41 521.07" stroke="rgba(94, 119, 19, 1)" stroke-width="1.5"></path><path d="M998.41 521.07L998.41 521.07" stroke="rgba(94, 119, 19, 1)" stroke-width="1.5"></path><path d="M998.41 521.07L999.27 659.83" stroke="rgba(94, 119, 19, 1)" stroke-width="1.5"></path><path d="M998.41 521.07L1144.88 501.49" stroke="rgba(94, 119, 19, 1)" stroke-width="1.5"></path><path d="M998.41 521.07L1095 400.92" stroke="rgba(94, 119, 19, 1)" stroke-width="1.5"></path><path d="M999.27 659.83L999.27 659.83" stroke="rgba(94, 119, 19, 1)" stroke-width="1.5"></path><path d="M999.27 659.83L1144.88 501.49" stroke="rgba(94, 119, 19, 1)" stroke-width="1.5"></path><path d="M1109.76 -71.44L1109.76 -71.44" stroke="rgba(94, 119, 19, 1)" stroke-width="1.5"></path><path d="M1109.76 -71.44L1133.69 104.51" stroke="rgba(94, 119, 19, 1)" stroke-width="1.5"></path><path d="M1133.69 104.51L1133.69 104.51" stroke="rgba(94, 119, 19, 1)" stroke-width="1.5"></path><path d="M1133.69 104.51L1155.73 201.35" stroke="rgba(94, 119, 19, 1)" stroke-width="1.5"></path><path d="M1133.69 104.51L1250.19 73.87" stroke="rgba(94, 119, 19, 1)" stroke-width="1.5"></path><path d="M1155.73 201.35L1155.73 201.35" stroke="rgba(94, 119, 19, 1)" stroke-width="1.5"></path><path d="M1155.73 201.35L1240.14 214.78" stroke="rgba(94, 119, 19, 1)" stroke-width="1.5"></path><path d="M1155.73 201.35L1250.19 73.87" stroke="rgba(94, 119, 19, 1)" stroke-width="1.5"></path><path d="M1095 400.92L1095 400.92" stroke="rgba(94, 119, 19, 1)" stroke-width="1.5"></path><path d="M1095 400.92L1144.88 501.49" stroke="rgba(94, 119, 19, 1)" stroke-width="1.5"></path><path d="M1144.88 501.49L1144.88 501.49" stroke="rgba(94, 119, 19, 1)" stroke-width="1.5"></path><path d="M1144.88 501.49L1260.2 638.38" stroke="rgba(94, 119, 19, 1)" stroke-width="1.5"></path><path d="M1144.88 501.49L1275.18 378.43" stroke="rgba(94, 119, 19, 1)" stroke-width="1.5"></path><path d="M1144.88 501.49L999.18 365.72" stroke="rgba(94, 119, 19, 1)" stroke-width="1.5"></path><path d="M1310.14 -70.02L1310.14 -70.02" stroke="rgba(94, 119, 19, 1)" stroke-width="1.5"></path><path d="M1310.14 -70.02L1451.41 -68.86" stroke="rgba(94, 119, 19, 1)" stroke-width="1.5"></path><path d="M1310.14 -70.02L1250.19 73.87" stroke="rgba(94, 119, 19, 1)" stroke-width="1.5"></path><path d="M1310.14 -70.02L1391.65 73.27" stroke="rgba(94, 119, 19, 1)" stroke-width="1.5"></path><path d="M1250.19 73.87L1250.19 73.87" stroke="rgba(94, 119, 19, 1)" stroke-width="1.5"></path><path d="M1250.19 73.87L1240.14 214.78" stroke="rgba(94, 119, 19, 1)" stroke-width="1.5"></path><path d="M1250.19 73.87L1391.65 73.27" stroke="rgba(94, 119, 19, 1)" stroke-width="1.5"></path><path d="M1240.14 214.78L1240.14 214.78" stroke="rgba(94, 119, 19, 1)" stroke-width="1.5"></path><path d="M1240.14 214.78L1133.69 104.51" stroke="rgba(94, 119, 19, 1)" stroke-width="1.5"></path><path d="M1240.14 214.78L1275.18 378.43" stroke="rgba(94, 119, 19, 1)" stroke-width="1.5"></path><path d="M1240.14 214.78L1391.65 73.27" stroke="rgba(94, 119, 19, 1)" stroke-width="1.5"></path><path d="M1275.18 378.43L1275.18 378.43" stroke="rgba(94, 119, 19, 1)" stroke-width="1.5"></path><path d="M1275.18 378.43L1427.8 392.23" stroke="rgba(94, 119, 19, 1)" stroke-width="1.5"></path><path d="M1275.18 378.43L1095 400.92" stroke="rgba(94, 119, 19, 1)" stroke-width="1.5"></path><path d="M1275.18 378.43L1445.32 258.48" stroke="rgba(94, 119, 19, 1)" stroke-width="1.5"></path><path d="M1275.18 378.43L1155.73 201.35" stroke="rgba(94, 119, 19, 1)" stroke-width="1.5"></path><path d="M1260.2 638.38L1260.2 638.38" stroke="rgba(94, 119, 19, 1)" stroke-width="1.5"></path><path d="M1260.2 638.38L1422.64 644.67" stroke="rgba(94, 119, 19, 1)" stroke-width="1.5"></path><path d="M1260.2 638.38L1449.06 503" stroke="rgba(94, 119, 19, 1)" stroke-width="1.5"></path><path d="M1260.2 638.38L1275.18 378.43" stroke="rgba(94, 119, 19, 1)" stroke-width="1.5"></path><path d="M1260.2 638.38L999.27 659.83" stroke="rgba(94, 119, 19, 1)" stroke-width="1.5"></path><path d="M1260.2 638.38L998.41 521.07" stroke="rgba(94, 119, 19, 1)" stroke-width="1.5"></path><path d="M1451.41 -68.86L1451.41 -68.86" stroke="rgba(94, 119, 19, 1)" stroke-width="1.5"></path><path d="M1451.41 -68.86L1538.83 -86.2" stroke="rgba(94, 119, 19, 1)" stroke-width="1.5"></path><path d="M1451.41 -68.86L1391.65 73.27" stroke="rgba(94, 119, 19, 1)" stroke-width="1.5"></path><path d="M1451.41 -68.86L1600.09 70.86" stroke="rgba(94, 119, 19, 1)" stroke-width="1.5"></path><path d="M1391.65 73.27L1391.65 73.27" stroke="rgba(94, 119, 19, 1)" stroke-width="1.5"></path><path d="M1445.32 258.48L1445.32 258.48" stroke="rgba(94, 119, 19, 1)" stroke-width="1.5"></path><path d="M1445.32 258.48L1576.26 226.19" stroke="rgba(94, 119, 19, 1)" stroke-width="1.5"></path><path d="M1445.32 258.48L1427.8 392.23" stroke="rgba(94, 119, 19, 1)" stroke-width="1.5"></path><path d="M1445.32 258.48L1562.18 347.21" stroke="rgba(94, 119, 19, 1)" stroke-width="1.5"></path><path d="M1445.32 258.48L1391.65 73.27" stroke="rgba(94, 119, 19, 1)" stroke-width="1.5"></path><path d="M1427.8 392.23L1427.8 392.23" stroke="rgba(94, 119, 19, 1)" stroke-width="1.5"></path><path d="M1427.8 392.23L1449.06 503" stroke="rgba(94, 119, 19, 1)" stroke-width="1.5"></path><path d="M1427.8 392.23L1562.18 347.21" stroke="rgba(94, 119, 19, 1)" stroke-width="1.5"></path><path d="M1449.06 503L1449.06 503" stroke="rgba(94, 119, 19, 1)" stroke-width="1.5"></path><path d="M1449.06 503L1564.44 536.63" stroke="rgba(94, 119, 19, 1)" stroke-width="1.5"></path><path d="M1449.06 503L1422.64 644.67" stroke="rgba(94, 119, 19, 1)" stroke-width="1.5"></path><path d="M1422.64 644.67L1422.64 644.67" stroke="rgba(94, 119, 19, 1)" stroke-width="1.5"></path><path d="M1422.64 644.67L1560.45 692.12" stroke="rgba(94, 119, 19, 1)" stroke-width="1.5"></path><path d="M1538.83 -86.2L1538.83 -86.2" stroke="rgba(94, 119, 19, 1)" stroke-width="1.5"></path><path d="M1538.83 -86.2L1600.09 70.86" stroke="rgba(94, 119, 19, 1)" stroke-width="1.5"></path><path d="M1538.83 -86.2L1391.65 73.27" stroke="rgba(94, 119, 19, 1)" stroke-width="1.5"></path><path d="M1600.09 70.86L1600.09 70.86" stroke="rgba(94, 119, 19, 1)" stroke-width="1.5"></path><path d="M1600.09 70.86L1576.26 226.19" stroke="rgba(94, 119, 19, 1)" stroke-width="1.5"></path><path d="M1600.09 70.86L1391.65 73.27" stroke="rgba(94, 119, 19, 1)" stroke-width="1.5"></path><path d="M1600.09 70.86L1445.32 258.48" stroke="rgba(94, 119, 19, 1)" stroke-width="1.5"></path><path d="M1600.09 70.86L1562.18 347.21" stroke="rgba(94, 119, 19, 1)" stroke-width="1.5"></path><path d="M1576.26 226.19L1576.26 226.19" stroke="rgba(94, 119, 19, 1)" stroke-width="1.5"></path><path d="M1576.26 226.19L1562.18 347.21" stroke="rgba(94, 119, 19, 1)" stroke-width="1.5"></path><path d="M1576.26 226.19L1427.8 392.23" stroke="rgba(94, 119, 19, 1)" stroke-width="1.5"></path><path d="M1576.26 226.19L1391.65 73.27" stroke="rgba(94, 119, 19, 1)" stroke-width="1.5"></path><path d="M1562.18 347.21L1562.18 347.21" stroke="rgba(94, 119, 19, 1)" stroke-width="1.5"></path><path d="M1562.18 347.21L1564.44 536.63" stroke="rgba(94, 119, 19, 1)" stroke-width="1.5"></path><path d="M1562.18 347.21L1449.06 503" stroke="rgba(94, 119, 19, 1)" stroke-width="1.5"></path><path d="M1564.44 536.63L1564.44 536.63" stroke="rgba(94, 119, 19, 1)" stroke-width="1.5"></path><path d="M1564.44 536.63L1560.45 692.12" stroke="rgba(94, 119, 19, 1)" stroke-width="1.5"></path><path d="M1564.44 536.63L1422.64 644.67" stroke="rgba(94, 119, 19, 1)" stroke-width="1.5"></path><path d="M1560.45 692.12L1560.45 692.12" stroke="rgba(94, 119, 19, 1)" stroke-width="1.5"></path><path d="M1560.45 692.12L1449.06 503" stroke="rgba(94, 119, 19, 1)" stroke-width="1.5"></path><path d="M1560.45 692.12L1260.2 638.38" stroke="rgba(94, 119, 19, 1)" stroke-width="1.5"></path><path d="M1560.45 692.12L1427.8 392.23" stroke="rgba(94, 119, 19, 1)" stroke-width="1.5"></path><circle r="5" cx="-42.34" cy="351.19" fill="rgba(94, 119, 19, 1)"></circle><circle r="5" cx="-60.89" cy="504.34" fill="rgba(94, 119, 19, 1)"></circle><circle r="5" cx="-45.46" cy="637.66" fill="rgba(94, 119, 19, 1)"></circle><circle r="5" cx="105.87" cy="350.87" fill="rgba(94, 119, 19, 1)"></circle><circle r="5" cx="40.23" cy="548.4" fill="rgba(94, 119, 19, 1)"></circle><circle r="5" cx="55.17" cy="677.65" fill="rgba(94, 119, 19, 1)"></circle><circle r="5" cx="226.77" cy="508.95" fill="rgba(94, 119, 19, 1)"></circle><circle r="5" cx="231.97" cy="696.35" fill="rgba(94, 119, 19, 1)"></circle><circle r="5" cx="392.02" cy="395.98" fill="rgba(94, 119, 19, 1)"></circle><circle r="5" cx="356.53" cy="495.04" fill="rgba(94, 119, 19, 1)"></circle><circle r="5" cx="395.38" cy="699.13" fill="rgba(94, 119, 19, 1)"></circle><circle r="5" cx="537.94" cy="380.45" fill="rgba(94, 119, 19, 1)"></circle><circle r="5" cx="516.2" cy="547.22" fill="rgba(94, 119, 19, 1)"></circle><circle r="5" cx="514.02" cy="676.3" fill="rgba(94, 119, 19, 1)"></circle><circle r="5" cx="639.11" cy="396.12" fill="rgba(94, 119, 19, 1)"></circle><circle r="5" cx="688.16" cy="489.52" fill="rgba(94, 119, 19, 1)"></circle><circle r="5" cx="658.5" cy="699.33" fill="rgba(94, 119, 19, 1)"></circle><circle r="5" cx="854.21" cy="344.43" fill="rgba(94, 119, 19, 1)"></circle><circle r="5" cx="820.23" cy="641.55" fill="rgba(94, 119, 19, 1)"></circle><circle r="5" cx="944.88" cy="-67.09" fill="rgba(94, 119, 19, 1)"></circle><circle r="5" cx="945.51" cy="63.09" fill="rgba(94, 119, 19, 1)"></circle><circle r="5" cx="1002.53" cy="223.4" fill="rgba(94, 119, 19, 1)"></circle><circle r="5" cx="999.18" cy="365.72" fill="rgba(94, 119, 19, 1)"></circle><circle r="5" cx="998.41" cy="521.07" fill="rgba(94, 119, 19, 1)"></circle><circle r="5" cx="999.27" cy="659.83" fill="rgba(94, 119, 19, 1)"></circle><circle r="5" cx="1109.76" cy="-71.44" fill="rgba(94, 119, 19, 1)"></circle><circle r="5" cx="1133.69" cy="104.51" fill="rgba(94, 119, 19, 1)"></circle><circle r="5" cx="1155.73" cy="201.35" fill="rgba(94, 119, 19, 1)"></circle><circle r="5" cx="1095" cy="400.92" fill="rgba(94, 119, 19, 1)"></circle><circle r="5" cx="1144.88" cy="501.49" fill="rgba(94, 119, 19, 1)"></circle><circle r="5" cx="1310.14" cy="-70.02" fill="rgba(94, 119, 19, 1)"></circle><circle r="5" cx="1250.19" cy="73.87" fill="rgba(94, 119, 19, 1)"></circle><circle r="5" cx="1240.14" cy="214.78" fill="rgba(94, 119, 19, 1)"></circle><circle r="5" cx="1275.18" cy="378.43" fill="rgba(94, 119, 19, 1)"></circle><circle r="5" cx="1260.2" cy="638.38" fill="rgba(94, 119, 19, 1)"></circle><circle r="5" cx="1451.41" cy="-68.86" fill="rgba(94, 119, 19, 1)"></circle><circle r="5" cx="1391.65" cy="73.27" fill="rgba(94, 119, 19, 1)"></circle><circle r="5" cx="1445.32" cy="258.48" fill="rgba(94, 119, 19, 1)"></circle><circle r="5" cx="1427.8" cy="392.23" fill="rgba(94, 119, 19, 1)"></circle><circle r="5" cx="1449.06" cy="503" fill="rgba(94, 119, 19, 1)"></circle><circle r="5" cx="1422.64" cy="644.67" fill="rgba(94, 119, 19, 1)"></circle><circle r="5" cx="1538.83" cy="-86.2" fill="rgba(94, 119, 19, 1)"></circle><circle r="5" cx="1600.09" cy="70.86" fill="rgba(94, 119, 19, 1)"></circle><circle r="5" cx="1576.26" cy="226.19" fill="rgba(94, 119, 19, 1)"></circle><circle r="5" cx="1562.18" cy="347.21" fill="rgba(94, 119, 19, 1)"></circle><circle r="5" cx="1564.44" cy="536.63" fill="rgba(94, 119, 19, 1)"></circle><circle r="5" cx="1560.45" cy="692.12" fill="rgba(94, 119, 19, 1)"></circle><path d="M94.83 703.58L94.83 703.58" stroke="hsl(75, 77.6%, 25%)" stroke-width="1.5"></path><path d="M94.83 703.58L219.34 641.27" stroke="hsl(75, 77.6%, 25%)" stroke-width="1.5"></path><path d="M94.83 703.58L78.55 559.63" stroke="hsl(75, 77.6%, 25%)" stroke-width="1.5"></path><path d="M94.83 703.58L-81.15 707.25" stroke="hsl(75, 77.6%, 25%)" stroke-width="1.5"></path><path d="M94.83 703.58L211.76 507.06" stroke="hsl(75, 77.6%, 25%)" stroke-width="1.5"></path><path d="M94.83 703.58L346.79 709.13" stroke="hsl(75, 77.6%, 25%)" stroke-width="1.5"></path><path d="M346.79 709.13L346.79 709.13" stroke="hsl(75, 77.6%, 25%)" stroke-width="1.5"></path><path d="M346.79 709.13L219.34 641.27" stroke="hsl(75, 77.6%, 25%)" stroke-width="1.5"></path><path d="M346.79 709.13L378.12 546.33" stroke="hsl(75, 77.6%, 25%)" stroke-width="1.5"></path><path d="M346.79 709.13L548.44 649.47" stroke="hsl(75, 77.6%, 25%)" stroke-width="1.5"></path><path d="M346.79 709.13L211.76 507.06" stroke="hsl(75, 77.6%, 25%)" stroke-width="1.5"></path><path d="M346.79 709.13L541.25 524.08" stroke="hsl(75, 77.6%, 25%)" stroke-width="1.5"></path><path d="M-85.43 503.24L-85.43 503.24" stroke="hsl(75, 77.6%, 25%)" stroke-width="1.5"></path><path d="M-85.43 503.24L78.55 559.63" stroke="hsl(75, 77.6%, 25%)" stroke-width="1.5"></path><path d="M-85.43 503.24L-81.15 707.25" stroke="hsl(75, 77.6%, 25%)" stroke-width="1.5"></path><path d="M-81.15 707.25L-81.15 707.25" stroke="hsl(75, 77.6%, 25%)" stroke-width="1.5"></path><path d="M-81.15 707.25L78.55 559.63" stroke="hsl(75, 77.6%, 25%)" stroke-width="1.5"></path><path d="M-81.15 707.25L219.34 641.27" stroke="hsl(75, 77.6%, 25%)" stroke-width="1.5"></path><path d="M-81.15 707.25L211.76 507.06" stroke="hsl(75, 77.6%, 25%)" stroke-width="1.5"></path><path d="M-81.15 707.25L346.79 709.13" stroke="hsl(75, 77.6%, 25%)" stroke-width="1.5"></path><path d="M78.55 559.63L78.55 559.63" stroke="hsl(75, 77.6%, 25%)" stroke-width="1.5"></path><path d="M78.55 559.63L211.76 507.06" stroke="hsl(75, 77.6%, 25%)" stroke-width="1.5"></path><path d="M78.55 559.63L219.34 641.27" stroke="hsl(75, 77.6%, 25%)" stroke-width="1.5"></path><path d="M211.76 507.06L211.76 507.06" stroke="hsl(75, 77.6%, 25%)" stroke-width="1.5"></path><path d="M211.76 507.06L219.34 641.27" stroke="hsl(75, 77.6%, 25%)" stroke-width="1.5"></path><path d="M219.34 641.27L219.34 641.27" stroke="hsl(75, 77.6%, 25%)" stroke-width="1.5"></path><path d="M378.12 546.33L378.12 546.33" stroke="hsl(75, 77.6%, 25%)" stroke-width="1.5"></path><path d="M378.12 546.33L541.25 524.08" stroke="hsl(75, 77.6%, 25%)" stroke-width="1.5"></path><path d="M378.12 546.33L211.76 507.06" stroke="hsl(75, 77.6%, 25%)" stroke-width="1.5"></path><path d="M378.12 546.33L219.34 641.27" stroke="hsl(75, 77.6%, 25%)" stroke-width="1.5"></path><path d="M541.25 524.08L541.25 524.08" stroke="hsl(75, 77.6%, 25%)" stroke-width="1.5"></path><path d="M541.25 524.08L548.44 649.47" stroke="hsl(75, 77.6%, 25%)" stroke-width="1.5"></path><path d="M548.44 649.47L548.44 649.47" stroke="hsl(75, 77.6%, 25%)" stroke-width="1.5"></path><path d="M548.44 649.47L652.7 662.12" stroke="hsl(75, 77.6%, 25%)" stroke-width="1.5"></path><path d="M548.44 649.47L378.12 546.33" stroke="hsl(75, 77.6%, 25%)" stroke-width="1.5"></path><path d="M548.44 649.47L687.35 488.65" stroke="hsl(75, 77.6%, 25%)" stroke-width="1.5"></path><path d="M548.44 649.47L808.17 676" stroke="hsl(75, 77.6%, 25%)" stroke-width="1.5"></path><path d="M687.35 488.65L687.35 488.65" stroke="hsl(75, 77.6%, 25%)" stroke-width="1.5"></path><path d="M687.35 488.65L807.26 553.19" stroke="hsl(75, 77.6%, 25%)" stroke-width="1.5"></path><path d="M687.35 488.65L541.25 524.08" stroke="hsl(75, 77.6%, 25%)" stroke-width="1.5"></path><path d="M687.35 488.65L652.7 662.12" stroke="hsl(75, 77.6%, 25%)" stroke-width="1.5"></path><path d="M687.35 488.65L832.48 381.43" stroke="hsl(75, 77.6%, 25%)" stroke-width="1.5"></path><path d="M652.7 662.12L652.7 662.12" stroke="hsl(75, 77.6%, 25%)" stroke-width="1.5"></path><path d="M652.7 662.12L808.17 676" stroke="hsl(75, 77.6%, 25%)" stroke-width="1.5"></path><path d="M652.7 662.12L541.25 524.08" stroke="hsl(75, 77.6%, 25%)" stroke-width="1.5"></path><path d="M652.7 662.12L807.26 553.19" stroke="hsl(75, 77.6%, 25%)" stroke-width="1.5"></path><path d="M652.7 662.12L378.12 546.33" stroke="hsl(75, 77.6%, 25%)" stroke-width="1.5"></path><path d="M832.48 381.43L832.48 381.43" stroke="hsl(75, 77.6%, 25%)" stroke-width="1.5"></path><path d="M832.48 381.43L952.6 365.17" stroke="hsl(75, 77.6%, 25%)" stroke-width="1.5"></path><path d="M832.48 381.43L807.26 553.19" stroke="hsl(75, 77.6%, 25%)" stroke-width="1.5"></path><path d="M832.48 381.43L997.01 544.72" stroke="hsl(75, 77.6%, 25%)" stroke-width="1.5"></path><path d="M832.48 381.43L1092.2 372.84" stroke="hsl(75, 77.6%, 25%)" stroke-width="1.5"></path><path d="M832.48 381.43L1089.11 245.36" stroke="hsl(75, 77.6%, 25%)" stroke-width="1.5"></path><path d="M807.26 553.19L807.26 553.19" stroke="hsl(75, 77.6%, 25%)" stroke-width="1.5"></path><path d="M807.26 553.19L808.17 676" stroke="hsl(75, 77.6%, 25%)" stroke-width="1.5"></path><path d="M807.26 553.19L997.01 544.72" stroke="hsl(75, 77.6%, 25%)" stroke-width="1.5"></path><path d="M807.26 553.19L1000.93 672.4" stroke="hsl(75, 77.6%, 25%)" stroke-width="1.5"></path><path d="M808.17 676L808.17 676" stroke="hsl(75, 77.6%, 25%)" stroke-width="1.5"></path><path d="M808.17 676L1000.93 672.4" stroke="hsl(75, 77.6%, 25%)" stroke-width="1.5"></path><path d="M808.17 676L687.35 488.65" stroke="hsl(75, 77.6%, 25%)" stroke-width="1.5"></path><path d="M808.17 676L997.01 544.72" stroke="hsl(75, 77.6%, 25%)" stroke-width="1.5"></path><path d="M952.6 365.17L952.6 365.17" stroke="hsl(75, 77.6%, 25%)" stroke-width="1.5"></path><path d="M952.6 365.17L1092.2 372.84" stroke="hsl(75, 77.6%, 25%)" stroke-width="1.5"></path><path d="M952.6 365.17L1089.11 245.36" stroke="hsl(75, 77.6%, 25%)" stroke-width="1.5"></path><path d="M997.01 544.72L997.01 544.72" stroke="hsl(75, 77.6%, 25%)" stroke-width="1.5"></path><path d="M997.01 544.72L1090.96 542.09" stroke="hsl(75, 77.6%, 25%)" stroke-width="1.5"></path><path d="M997.01 544.72L1000.93 672.4" stroke="hsl(75, 77.6%, 25%)" stroke-width="1.5"></path><path d="M1000.93 672.4L1000.93 672.4" stroke="hsl(75, 77.6%, 25%)" stroke-width="1.5"></path><path d="M1000.93 672.4L1116.67 675.54" stroke="hsl(75, 77.6%, 25%)" stroke-width="1.5"></path><path d="M1000.93 672.4L1090.96 542.09" stroke="hsl(75, 77.6%, 25%)" stroke-width="1.5"></path><path d="M1089.11 245.36L1089.11 245.36" stroke="hsl(75, 77.6%, 25%)" stroke-width="1.5"></path><path d="M1089.11 245.36L1092.2 372.84" stroke="hsl(75, 77.6%, 25%)" stroke-width="1.5"></path><path d="M1089.11 245.36L1241.76 192.44" stroke="hsl(75, 77.6%, 25%)" stroke-width="1.5"></path><path d="M1089.11 245.36L1267.58 385.58" stroke="hsl(75, 77.6%, 25%)" stroke-width="1.5"></path><path d="M1092.2 372.84L1092.2 372.84" stroke="hsl(75, 77.6%, 25%)" stroke-width="1.5"></path><path d="M1090.96 542.09L1090.96 542.09" stroke="hsl(75, 77.6%, 25%)" stroke-width="1.5"></path><path d="M1090.96 542.09L1116.67 675.54" stroke="hsl(75, 77.6%, 25%)" stroke-width="1.5"></path><path d="M1090.96 542.09L1092.2 372.84" stroke="hsl(75, 77.6%, 25%)" stroke-width="1.5"></path><path d="M1116.67 675.54L1116.67 675.54" stroke="hsl(75, 77.6%, 25%)" stroke-width="1.5"></path><path d="M1116.67 675.54L1275.78 710.01" stroke="hsl(75, 77.6%, 25%)" stroke-width="1.5"></path><path d="M1116.67 675.54L997.01 544.72" stroke="hsl(75, 77.6%, 25%)" stroke-width="1.5"></path><path d="M1116.67 675.54L1277.48 493.69" stroke="hsl(75, 77.6%, 25%)" stroke-width="1.5"></path><path d="M1274.04 -76.43L1274.04 -76.43" stroke="hsl(75, 77.6%, 25%)" stroke-width="1.5"></path><path d="M1274.04 -76.43L1423.88 -77.89" stroke="hsl(75, 77.6%, 25%)" stroke-width="1.5"></path><path d="M1299.59 99.57L1299.59 99.57" stroke="hsl(75, 77.6%, 25%)" stroke-width="1.5"></path><path d="M1299.59 99.57L1241.76 192.44" stroke="hsl(75, 77.6%, 25%)" stroke-width="1.5"></path><path d="M1299.59 99.57L1434.01 38.53" stroke="hsl(75, 77.6%, 25%)" stroke-width="1.5"></path><path d="M1241.76 192.44L1241.76 192.44" stroke="hsl(75, 77.6%, 25%)" stroke-width="1.5"></path><path d="M1241.76 192.44L1419.09 199.92" stroke="hsl(75, 77.6%, 25%)" stroke-width="1.5"></path><path d="M1267.58 385.58L1267.58 385.58" stroke="hsl(75, 77.6%, 25%)" stroke-width="1.5"></path><path d="M1267.58 385.58L1277.48 493.69" stroke="hsl(75, 77.6%, 25%)" stroke-width="1.5"></path><path d="M1267.58 385.58L1388.77 501.26" stroke="hsl(75, 77.6%, 25%)" stroke-width="1.5"></path><path d="M1277.48 493.69L1277.48 493.69" stroke="hsl(75, 77.6%, 25%)" stroke-width="1.5"></path><path d="M1277.48 493.69L1388.77 501.26" stroke="hsl(75, 77.6%, 25%)" stroke-width="1.5"></path><path d="M1277.48 493.69L1446.86 408.9" stroke="hsl(75, 77.6%, 25%)" stroke-width="1.5"></path><path d="M1275.78 710.01L1275.78 710.01" stroke="hsl(75, 77.6%, 25%)" stroke-width="1.5"></path><path d="M1275.78 710.01L1431.35 689.72" stroke="hsl(75, 77.6%, 25%)" stroke-width="1.5"></path><path d="M1275.78 710.01L1277.48 493.69" stroke="hsl(75, 77.6%, 25%)" stroke-width="1.5"></path><path d="M1275.78 710.01L1388.77 501.26" stroke="hsl(75, 77.6%, 25%)" stroke-width="1.5"></path><path d="M1423.88 -77.89L1423.88 -77.89" stroke="hsl(75, 77.6%, 25%)" stroke-width="1.5"></path><path d="M1423.88 -77.89L1434.01 38.53" stroke="hsl(75, 77.6%, 25%)" stroke-width="1.5"></path><path d="M1423.88 -77.89L1554.9 -71.28" stroke="hsl(75, 77.6%, 25%)" stroke-width="1.5"></path><path d="M1423.88 -77.89L1299.59 99.57" stroke="hsl(75, 77.6%, 25%)" stroke-width="1.5"></path><path d="M1434.01 38.53L1434.01 38.53" stroke="hsl(75, 77.6%, 25%)" stroke-width="1.5"></path><path d="M1434.01 38.53L1419.09 199.92" stroke="hsl(75, 77.6%, 25%)" stroke-width="1.5"></path><path d="M1419.09 199.92L1419.09 199.92" stroke="hsl(75, 77.6%, 25%)" stroke-width="1.5"></path><path d="M1419.09 199.92L1299.59 99.57" stroke="hsl(75, 77.6%, 25%)" stroke-width="1.5"></path><path d="M1446.86 408.9L1446.86 408.9" stroke="hsl(75, 77.6%, 25%)" stroke-width="1.5"></path><path d="M1446.86 408.9L1552.08 402.26" stroke="hsl(75, 77.6%, 25%)" stroke-width="1.5"></path><path d="M1446.86 408.9L1388.77 501.26" stroke="hsl(75, 77.6%, 25%)" stroke-width="1.5"></path><path d="M1388.77 501.26L1388.77 501.26" stroke="hsl(75, 77.6%, 25%)" stroke-width="1.5"></path><path d="M1388.77 501.26L1542.66 522.4" stroke="hsl(75, 77.6%, 25%)" stroke-width="1.5"></path><path d="M1388.77 501.26L1552.08 402.26" stroke="hsl(75, 77.6%, 25%)" stroke-width="1.5"></path><path d="M1388.77 501.26L1431.35 689.72" stroke="hsl(75, 77.6%, 25%)" stroke-width="1.5"></path><path d="M1431.35 689.72L1431.35 689.72" stroke="hsl(75, 77.6%, 25%)" stroke-width="1.5"></path><path d="M1431.35 689.72L1578.75 669.26" stroke="hsl(75, 77.6%, 25%)" stroke-width="1.5"></path><path d="M1431.35 689.72L1542.66 522.4" stroke="hsl(75, 77.6%, 25%)" stroke-width="1.5"></path><path d="M1431.35 689.72L1277.48 493.69" stroke="hsl(75, 77.6%, 25%)" stroke-width="1.5"></path><path d="M1431.35 689.72L1446.86 408.9" stroke="hsl(75, 77.6%, 25%)" stroke-width="1.5"></path><path d="M1554.9 -71.28L1554.9 -71.28" stroke="hsl(75, 77.6%, 25%)" stroke-width="1.5"></path><path d="M1554.9 -71.28L1599.54 67.49" stroke="hsl(75, 77.6%, 25%)" stroke-width="1.5"></path><path d="M1554.9 -71.28L1434.01 38.53" stroke="hsl(75, 77.6%, 25%)" stroke-width="1.5"></path><path d="M1554.9 -71.28L1274.04 -76.43" stroke="hsl(75, 77.6%, 25%)" stroke-width="1.5"></path><path d="M1554.9 -71.28L1419.09 199.92" stroke="hsl(75, 77.6%, 25%)" stroke-width="1.5"></path><path d="M1554.9 -71.28L1299.59 99.57" stroke="hsl(75, 77.6%, 25%)" stroke-width="1.5"></path><path d="M1599.54 67.49L1599.54 67.49" stroke="hsl(75, 77.6%, 25%)" stroke-width="1.5"></path><path d="M1599.54 67.49L1434.01 38.53" stroke="hsl(75, 77.6%, 25%)" stroke-width="1.5"></path><path d="M1599.54 67.49L1583.33 257.07" stroke="hsl(75, 77.6%, 25%)" stroke-width="1.5"></path><path d="M1599.54 67.49L1419.09 199.92" stroke="hsl(75, 77.6%, 25%)" stroke-width="1.5"></path><path d="M1599.54 67.49L1423.88 -77.89" stroke="hsl(75, 77.6%, 25%)" stroke-width="1.5"></path><path d="M1599.54 67.49L1299.59 99.57" stroke="hsl(75, 77.6%, 25%)" stroke-width="1.5"></path><path d="M1583.33 257.07L1583.33 257.07" stroke="hsl(75, 77.6%, 25%)" stroke-width="1.5"></path><path d="M1583.33 257.07L1552.08 402.26" stroke="hsl(75, 77.6%, 25%)" stroke-width="1.5"></path><path d="M1583.33 257.07L1419.09 199.92" stroke="hsl(75, 77.6%, 25%)" stroke-width="1.5"></path><path d="M1583.33 257.07L1446.86 408.9" stroke="hsl(75, 77.6%, 25%)" stroke-width="1.5"></path><path d="M1583.33 257.07L1434.01 38.53" stroke="hsl(75, 77.6%, 25%)" stroke-width="1.5"></path><path d="M1552.08 402.26L1552.08 402.26" stroke="hsl(75, 77.6%, 25%)" stroke-width="1.5"></path><path d="M1552.08 402.26L1542.66 522.4" stroke="hsl(75, 77.6%, 25%)" stroke-width="1.5"></path><path d="M1552.08 402.26L1419.09 199.92" stroke="hsl(75, 77.6%, 25%)" stroke-width="1.5"></path><path d="M1542.66 522.4L1542.66 522.4" stroke="hsl(75, 77.6%, 25%)" stroke-width="1.5"></path><path d="M1542.66 522.4L1446.86 408.9" stroke="hsl(75, 77.6%, 25%)" stroke-width="1.5"></path><path d="M1542.66 522.4L1578.75 669.26" stroke="hsl(75, 77.6%, 25%)" stroke-width="1.5"></path><path d="M1578.75 669.26L1578.75 669.26" stroke="hsl(75, 77.6%, 25%)" stroke-width="1.5"></path><path d="M1578.75 669.26L1388.77 501.26" stroke="hsl(75, 77.6%, 25%)" stroke-width="1.5"></path><circle r="25" cx="94.83" cy="703.58" fill="url(&quot;#SvgjsRadialGradient1009&quot;)"></circle><circle r="25" cx="346.79" cy="709.13" fill="url(&quot;#SvgjsRadialGradient1009&quot;)"></circle><circle r="5" cx="-85.43" cy="503.24" fill="#a2ab85"></circle><circle r="5" cx="-81.15" cy="707.25" fill="#a2ab85"></circle><circle r="5" cx="78.55" cy="559.63" fill="#a2ab85"></circle><circle r="5" cx="211.76" cy="507.06" fill="#a2ab85"></circle><circle r="5" cx="219.34" cy="641.27" fill="#a2ab85"></circle><circle r="5" cx="378.12" cy="546.33" fill="#a2ab85"></circle><circle r="5" cx="541.25" cy="524.08" fill="#a2ab85"></circle><circle r="5" cx="548.44" cy="649.47" fill="#a2ab85"></circle><circle r="5" cx="687.35" cy="488.65" fill="#a2ab85"></circle><circle r="5" cx="652.7" cy="662.12" fill="#a2ab85"></circle><circle r="5" cx="832.48" cy="381.43" fill="#a2ab85"></circle><circle r="5" cx="807.26" cy="553.19" fill="#a2ab85"></circle><circle r="5" cx="808.17" cy="676" fill="#a2ab85"></circle><circle r="5" cx="952.6" cy="365.17" fill="#a2ab85"></circle><circle r="5" cx="997.01" cy="544.72" fill="#a2ab85"></circle><circle r="5" cx="1000.93" cy="672.4" fill="#a2ab85"></circle><circle r="5" cx="1089.11" cy="245.36" fill="#a2ab85"></circle><circle r="5" cx="1092.2" cy="372.84" fill="#a2ab85"></circle><circle r="5" cx="1090.96" cy="542.09" fill="#a2ab85"></circle><circle r="5" cx="1116.67" cy="675.54" fill="#a2ab85"></circle><circle r="5" cx="1274.04" cy="-76.43" fill="#a2ab85"></circle><circle r="5" cx="1299.59" cy="99.57" fill="#a2ab85"></circle><circle r="5" cx="1241.76" cy="192.44" fill="#a2ab85"></circle><circle r="5" cx="1267.58" cy="385.58" fill="#a2ab85"></circle><circle r="5" cx="1277.48" cy="493.69" fill="#a2ab85"></circle><circle r="5" cx="1275.78" cy="710.01" fill="#a2ab85"></circle><circle r="5" cx="1423.88" cy="-77.89" fill="#a2ab85"></circle><circle r="5" cx="1434.01" cy="38.53" fill="#a2ab85"></circle><circle r="5" cx="1419.09" cy="199.92" fill="#a2ab85"></circle><circle r="5" cx="1446.86" cy="408.9" fill="#a2ab85"></circle><circle r="5" cx="1388.77" cy="501.26" fill="#a2ab85"></circle><circle r="5" cx="1431.35" cy="689.72" fill="#a2ab85"></circle><circle r="5" cx="1554.9" cy="-71.28" fill="#a2ab85"></circle><circle r="5" cx="1599.54" cy="67.49" fill="#a2ab85"></circle><circle r="5" cx="1583.33" cy="257.07" fill="#a2ab85"></circle><circle r="5" cx="1552.08" cy="402.26" fill="#a2ab85"></circle><circle r="5" cx="1542.66" cy="522.4" fill="#a2ab85"></circle><circle r="5" cx="1578.75" cy="669.26" fill="#a2ab85"></circle></g><defs><mask id="SvgjsMask1008"><rect width="1440" height="560" fill="#ffffff"></rect></mask><radialGradient id="SvgjsRadialGradient1009"><stop stop-color="#ffffff" offset="0.1"></stop><stop stop-color="rgba(68, 87, 11, 1)" offset="0.2"></stop><stop stop-color="rgba(68, 87, 11, 0)" offset="1"></stop></radialGradient></defs></svg>